HIERARCHY
ROOT Hips
{
	OFFSET -3.958830 18.904000 13.208200
	CHANNELS 6 Xposition Yposition Zposition Zrotation Yrotation Xrotation 
	JOINT LHipJoint
	{
		OFFSET 0.000000 0.000000 0.000000
		CHANNELS 3 Zrotation Yrotation Xrotation
		JOINT LeftUpLeg
		{
			OFFSET 1.800000 -1.400000 0.085000
			CHANNELS 3 Zrotation Yrotation Xrotation
			JOINT LeftLeg
			{
				OFFSET 2.215000 -6.000000 0.000000
				CHANNELS 3 Zrotation Yrotation Xrotation
				JOINT LeftFoot
				{
					OFFSET 2.500000 -6.900000 0.000000
					CHANNELS 3 Zrotation Yrotation Xrotation
					JOINT LeftToeBase
					{
						OFFSET 0.200000 -0.500000 1.950000
						CHANNELS 3 Zrotation Yrotation Xrotation
						End Site
						{
							OFFSET 0.000000 0.000000 0.000000
						}
					}
				}
			}
		}
	}
	JOINT RHipJoint
	{
		OFFSET 0.000000 0.000000 0.000000
		CHANNELS 3 Zrotation Yrotation Xrotation
		JOINT RightUpLeg
		{
			OFFSET -1.800000 -1.400000 0.085000
			CHANNELS 3 Zrotation Yrotation Xrotation
			JOINT RightLeg
			{
				OFFSET -2.215000 -6.000000 0.000000
				CHANNELS 3 Zrotation Yrotation Xrotation
				JOINT RightFoot
				{
					OFFSET -2.500000 -6.900000 0.000000
					CHANNELS 3 Zrotation Yrotation Xrotation
					JOINT RightToeBase
					{
						OFFSET -0.200000 -0.500000 1.950000
						CHANNELS 3 Zrotation Yrotation Xrotation
						End Site
						{
							OFFSET 0.000000 0.000000 0.000000
						}
					}
				}
			}
		}
	}
	JOINT LowerBack
	{
		OFFSET 0.000000 0.000000 0.000000
		CHANNELS 3 Zrotation Yrotation Xrotation
		JOINT Spine
		{
			OFFSET -0.087000 1.940000 -0.288900
			CHANNELS 3 Zrotation Yrotation Xrotation
			JOINT Spine1
			{
				OFFSET 0.000000 1.950000 0.060000
				CHANNELS 3 Zrotation Yrotation Xrotation
				JOINT Neck
				{
					OFFSET 0.000000 0.000000 0.000000
					CHANNELS 3 Zrotation Yrotation Xrotation
					JOINT Neck1
					{
						OFFSET 0.000000 1.600000 0.340000
						CHANNELS 3 Zrotation Yrotation Xrotation
						JOINT Head
						{
							OFFSET 0.000000 1.667000 -0.240000
							CHANNELS 3 Zrotation Yrotation Xrotation
							End Site
							{
								OFFSET 0.000000 0.000000 0.000000
							}
						}
					}
				}
				JOINT LeftShoulder
				{
					OFFSET 0.000000 0.000000 0.000000
					CHANNELS 3 Zrotation Yrotation Xrotation
					JOINT LeftArm
					{
						OFFSET 2.700000 1.550000 -0.730000
						CHANNELS 3 Zrotation Yrotation Xrotation
						JOINT LeftForeArm
						{
							OFFSET 5.450000 0.000000 0.000000
							CHANNELS 3 Zrotation Yrotation Xrotation
							JOINT LeftHand
							{
								OFFSET 3.450000 0.000000 0.000000
								CHANNELS 3 Zrotation Yrotation Xrotation
								JOINT LeftHandIndex1
								{
									OFFSET 0.750000 0.000000 0.000000
									CHANNELS 3 Zrotation Yrotation Xrotation
									End Site
									{
										OFFSET 0.000000 0.000000 0.000000
									}
								}
							}
						}
					}
				}
				JOINT RightShoulder
				{
					OFFSET 0.000000 0.000000 0.000000
					CHANNELS 3 Zrotation Yrotation Xrotation
					JOINT RightArm
					{
						OFFSET -2.700000 1.550000 -0.730000
						CHANNELS 3 Zrotation Yrotation Xrotation
						JOINT RightForeArm
						{
							OFFSET -5.450000 0.000000 0.000000
							CHANNELS 3 Zrotation Yrotation Xrotation
							JOINT RightHand
							{
								OFFSET -3.450000 0.000000 0.000000
								CHANNELS 3 Zrotation Yrotation Xrotation
								JOINT RightHandIndex1
								{
									OFFSET -0.750000 0.000000 0.000000
									CHANNELS 3 Zrotation Yrotation Xrotation
									End Site
									{
										OFFSET 0.000000 0.000000 0.000000
									}
								}
							}
						}
					}
				}
			}
		}
	}
}
MOTION
Frames: 4
Frame Time: 0.016667
-1.464410 16.464730 -2.057160 -4.434003 1.071334 -4.087540 -15.040604 11.324907 5.428444 4.813965 -10.711654 -35.943027 -20.816575 20.631023 50.239465 1.005534 11.594617 0.523575 0.320040 0.086610 0.388420 18.590381 -10.431420 2.427110 -5.786508 6.127640 -28.191128 -13.521324 -1.542263 52.152423 -1.013560 -6.988766 1.859648 0.016100 0.068240 0.131250 -4.259525 -0.409779 -8.833074 21.239951 -1.556461 35.038415 -6.676390 4.572210 10.087818 3.220863 -0.809459 -11.481194 -6.820293 0.982479 57.811947 -5.166980 0.511460 -10.748460 -15.321366 -14.139160 2.382525 -28.381113 -14.645338 -8.471366 21.598715 -50.079423 -11.234543 -3.441364 2.540682 0.676140 -0.057640 0.164190 0.024600 8.314986 16.455094 9.064858 50.291011 7.428269 -17.784215 12.290332 70.443774 0.809560 1.878260 -1.410112 -0.196380 0.313490 0.075990 -0.226810 
-1.458570 16.369120 -2.050790 -4.291927 0.216593 -4.513041 -15.044318 11.367453 5.484534 5.351291 -10.410164 -35.142020 -24.541973 21.670438 47.565204 1.047824 11.622002 0.504560 0.344600 0.113450 0.406580 18.575510 -10.422657 2.352840 -5.700380 6.094651 -27.497349 -15.265207 -0.422594 50.954054 -1.000972 -6.843505 1.886460 0.033130 0.045040 0.152010 -4.222626 -0.547294 -8.807365 21.778927 -1.983895 35.698474 -6.272022 4.292557 9.954531 3.223930 -2.011594 -11.214853 -9.336759 2.106253 57.179123 -6.121470 0.590040 -11.325780 -17.054414 -14.592228 2.346072 -27.347260 -14.276247 -8.616516 21.432447 -49.817646 -11.119568 -3.449056 2.573301 0.667070 -0.063860 0.173470 0.012410 10.029093 17.928569 8.724274 47.202723 8.615901 -17.371141 6.488635 65.277031 -1.898522 1.862977 -1.339672 -0.172880 0.290390 0.076960 -0.227160 
-1.451800 16.172050 -2.044630 -3.665962 -0.859738 -3.632991 -15.105684 11.110992 5.761740 7.284051 -10.330386 -36.837921 -31.557311 24.349126 44.550899 1.164516 12.240956 0.360557 0.235460 -0.042280 0.346190 18.578430 -10.100072 2.376122 -6.521294 6.712099 -29.433068 -17.338851 0.652310 51.929274 -0.986911 -7.102806 1.800609 0.003680 0.153360 0.135930 -4.138019 -0.769834 -8.968466 21.840045 -1.697368 34.795522 -4.833246 4.337926 9.338697 2.787413 -3.117003 -10.860735 -11.559934 2.966648 55.568615 -6.601350 0.524220 -9.410530 -18.029145 -14.286794 2.166816 -28.175348 -14.811311 -8.061455 21.247842 -49.758523 -11.113609 -3.559532 2.496853 0.664220 0.004460 0.079760 -0.022120 11.825180 18.621616 8.278688 43.916646 9.490408 -15.704861 1.162059 57.365179 -3.164303 1.835509 -1.202885 -0.272890 0.350780 0.174570 -0.249740 
-1.433810 15.972560 -2.038800 -3.366298 -1.202545 -2.353230 -15.168873 10.608782 6.186758 11.110004 -10.052451 -40.351854 -39.684135 27.887444 42.436331 1.464685 13.035642 0.187318 0.226710 -0.055240 0.307430 18.628298 -9.690310 2.419543 -7.348424 7.317118 -32.057138 -18.628452 1.078097 54.370655 -1.058863 -7.630941 1.629455 0.011490 0.209970 0.154180 -4.138036 -0.775465 -9.222623 22.757229 -1.399133 32.941582 -3.473319 4.608538 8.484219 2.393229 -3.452178 -10.090762 -11.981612 2.540789 53.607397 -6.431410 0.235370 -6.849430 -19.270448 -13.314426 1.375003 -30.068295 -17.393940 -6.883662 19.988415 -51.047060 -10.771459 -3.612981 2.567210 0.588130 0.060670 0.020240 0.005400 13.709805 17.933327 7.759684 41.126879 9.541490 -13.103522 -2.781943 48.725230 -3.351302 1.872013 -1.212511 -0.266350 0.320160 0.171590 -0.225590 
